<svg width="26" height="33" viewBox="0 0 26 33" fill="none" xmlns="http://www.w3.org/2000/svg">
<path d="M2.88789 32.25C2.09372 32.25 1.41386 31.9073 0.848316 31.2219C0.282772 30.5365 0 29.7125 0 28.75V4.25C0 3.2875 0.282772 2.46354 0.848316 1.77812C1.41386 1.09271 2.09372 0.75 2.88789 0.75H23.1031C23.8973 0.75 24.5771 1.09271 25.1427 1.77812C25.7082 2.46354 25.991 3.2875 25.991 4.25V28.75C25.991 29.7125 25.7082 30.5365 25.1427 31.2219C24.5771 31.9073 23.8973 32.25 23.1031 32.25H2.88789ZM2.88789 28.75H7.5807V20.875H7.21971C6.8106 20.875 6.46766 20.7073 6.19091 20.3719C5.91415 20.0365 5.77577 19.6208 5.77577 19.125V4.25H2.88789V28.75ZM18.4103 28.75H23.1031V4.25H20.2152V19.125C20.2152 19.6208 20.0768 20.0365 19.8001 20.3719C19.5233 20.7073 19.1804 20.875 18.7713 20.875H18.4103V28.75ZM9.74661 28.75H16.2444V20.875H15.8834C15.4743 20.875 15.1313 20.7073 14.8546 20.3719C14.5778 20.0365 14.4394 19.6208 14.4394 19.125V4.25H11.5515V19.125C11.5515 19.6208 11.4132 20.0365 11.1364 20.3719C10.8597 20.7073 10.5167 20.875 10.1076 20.875H9.74661V28.75Z" fill="white"/>
</svg>
