<svg width="29" height="29" viewBox="0 0 29 29" fill="none" xmlns="http://www.w3.org/2000/svg">
<path d="M12.9895 15.7567C12.9895 15.0679 12.4216 14.5 11.7329 14.5C11.0441 14.5 10.4762 15.0679 10.4762 15.7567C10.4762 16.09 10.6086 16.4096 10.8443 16.6453C11.0799 16.8809 11.3996 17.0133 11.7329 17.0133C12.0662 17.0133 12.3858 16.8809 12.6215 16.6453C12.8571 16.4096 12.9895 16.09 12.9895 15.7567ZM17.0254 18.6204C16.4816 19.1642 15.3216 19.3575 14.4999 19.3575C13.6783 19.3575 12.5183 19.1642 11.9745 18.6204C11.9451 18.589 11.9096 18.5639 11.8701 18.5467C11.8306 18.5296 11.788 18.5207 11.7449 18.5207C11.7019 18.5207 11.6593 18.5296 11.6198 18.5467C11.5803 18.5639 11.5448 18.589 11.5154 18.6204C11.4839 18.6498 11.4588 18.6854 11.4417 18.7249C11.4245 18.7643 11.4157 18.8069 11.4157 18.85C11.4157 18.8931 11.4245 18.9357 11.4417 18.9751C11.4588 19.0146 11.4839 19.0502 11.5154 19.0796C12.3733 19.9375 14.0166 20.01 14.4999 20.01C14.9833 20.01 16.6266 19.9375 17.4845 19.0796C17.516 19.0502 17.5411 19.0146 17.5582 18.9751C17.5754 18.9357 17.5842 18.8931 17.5842 18.85C17.5842 18.8069 17.5754 18.7643 17.5582 18.7249C17.5411 18.6854 17.516 18.6498 17.4845 18.6204C17.3637 18.4996 17.1583 18.4996 17.0254 18.6204ZM17.267 14.5C16.5783 14.5 16.0104 15.0679 16.0104 15.7567C16.0104 16.4454 16.5783 17.0133 17.267 17.0133C17.9558 17.0133 18.5237 16.4454 18.5237 15.7567C18.5237 15.0679 17.9679 14.5 17.267 14.5Z" fill="black"/>
<path d="M14.5 2.41675C7.82996 2.41675 2.41663 7.83008 2.41663 14.5001C2.41663 21.1701 7.82996 26.5834 14.5 26.5834C21.17 26.5834 26.5833 21.1701 26.5833 14.5001C26.5833 7.83008 21.17 2.41675 14.5 2.41675ZM21.5083 16.1072C21.5325 16.2763 21.5445 16.4576 21.5445 16.6388C21.5445 19.3455 18.3908 21.5447 14.5 21.5447C10.6091 21.5447 7.45538 19.3455 7.45538 16.6388C7.45538 16.4576 7.46746 16.2763 7.49163 16.1072C6.87538 15.8292 6.45246 15.213 6.45246 14.5001C6.45067 14.1536 6.5513 13.8143 6.74173 13.5248C6.93215 13.2353 7.20386 13.0086 7.52275 12.873C7.84163 12.7374 8.19346 12.6991 8.53405 12.7629C8.87463 12.8266 9.18878 12.9896 9.43704 13.2313C10.6575 12.3492 12.3491 11.7934 14.222 11.733L15.1162 7.51591C15.1283 7.43133 15.1766 7.35883 15.2491 7.32258C15.3216 7.27425 15.4062 7.26216 15.4908 7.27425L18.415 7.90258C18.5141 7.70149 18.6653 7.53059 18.8528 7.40762C19.0403 7.28465 19.2572 7.21407 19.4812 7.20322C19.7052 7.19237 19.9279 7.24164 20.1264 7.34591C20.3249 7.45019 20.4919 7.60567 20.6101 7.79623C20.7282 7.98679 20.7932 8.2055 20.7984 8.42966C20.8035 8.65381 20.7485 8.87526 20.6392 9.07103C20.5299 9.2668 20.3702 9.42977 20.1767 9.54301C19.9832 9.65626 19.7629 9.71567 19.5387 9.71508C18.862 9.71508 18.3183 9.18341 18.282 8.51883L15.66 7.963L14.8625 11.733C16.7112 11.7934 18.3666 12.3613 19.575 13.2313C19.7602 13.0544 19.9818 12.9202 20.2244 12.8379C20.4669 12.7556 20.7245 12.7273 20.9792 12.755C21.2338 12.7827 21.4793 12.8657 21.6985 12.9982C21.9177 13.1306 22.1053 13.3094 22.2482 13.522C22.3911 13.7345 22.4858 13.9757 22.5258 14.2287C22.5657 14.4817 22.5499 14.7404 22.4794 14.9866C22.4089 15.2329 22.2855 15.4607 22.1178 15.6543C21.95 15.8478 21.742 16.0024 21.5083 16.1072Z" fill="black"/>
</svg>
