<svg width="19" height="22" viewBox="0 0 19 22" fill="none" xmlns="http://www.w3.org/2000/svg">
<path d="M15.074 3.44667C14.2459 2.49276 13.7894 1.26793 13.7895 0H10.0453V15.1556C10.017 15.9759 9.67391 16.7531 9.08838 17.3232C8.50286 17.8932 7.72069 18.2116 6.90689 18.2111C5.18622 18.2111 3.75638 16.7933 3.75638 15.0333C3.75638 12.9311 5.76786 11.3544 7.83992 12.0022V8.14C3.65944 7.57778 0 10.8533 0 15.0333C0 19.1033 3.34439 22 6.89477 22C10.6996 22 13.7895 18.8833 13.7895 15.0333V7.34556C15.3078 8.44537 17.1307 9.03546 19 9.03222V5.25556C19 5.25556 16.7219 5.36556 15.074 3.44667Z" fill="black"/>
</svg>
